<svg xmlns="http://www.w3.org/2000/svg" id="bpmn-diagram_0_root_nGHJrEQw7E5b1p70" class="sprotty-graph default-mode" style="width: 1281px !important;height: 451px !important;border: none !important;background-attachment:scroll, scroll;background-blend-mode:normal, normal;background-clip:border-box, border-box;background-color:rgb(255, 255, 255);background-image:linear-gradient(to right, rgb(221, 221, 221) 1px, rgba(0, 0, 0, 0) 1px), linear-gradient(rgb(221, 221, 221) 1px, rgba(0, 0, 0, 0) 1px);background-origin:padding-box, padding-box;background-position:0% 0%, 0% 0%;background-repeat:repeat, repeat;background-size:10px 10px, 10px 10px;block-size:724px;border-block-end-color:rgb(187, 187, 187);border-block-end-style:solid;border-block-start-color:rgb(187, 187, 187);border-block-start-style:solid;border-bottom-color:rgb(187, 187, 187);border-bottom-style:solid;border-inline-end-color:rgb(187, 187, 187);border-inline-end-style:solid;border-inline-start-color:rgb(187, 187, 187);border-inline-start-style:solid;border-left-color:rgb(187, 187, 187);border-left-style:solid;border-right-color:rgb(187, 187, 187);border-right-style:solid;border-top-color:rgb(187, 187, 187);border-top-style:solid;caret-color:rgb(97, 97, 97);color:rgb(97, 97, 97);column-rule-color:rgb(97, 97, 97);cursor:default;display:block;flex-basis:0%;flex-grow:1;font-family:&quot;Helvetica Neue&quot;, Helvetica, Arial, sans-serif;font-size:20px;inline-size:0px;min-block-size:auto;min-height:auto;min-inline-size:auto;min-width:auto;outline-color:rgb(97, 97, 97);perspective-origin:0px 362px;text-decoration:none solid rgb(97, 97, 97);text-decoration-color:rgb(97, 97, 97);transform-origin:0px 362px;-webkit-locale:&quot;en&quot;;-webkit-text-emphasis-color:rgb(97, 97, 97);-webkit-text-fill-color:rgb(97, 97, 97);-webkit-text-stroke-color:rgb(97, 97, 97);" version="1.1" viewBox="100 100 1281 451"><g transform="scale(1) translate(0,0)"><g id="bpmn-diagram_0_Participant_1" transform="translate(100, 100)" class="pool"><rect x="0" y="0" width="1281" height="451" class="sprotty-node" style="fill:rgb(243, 243, 243);font-weight:700;opacity:0.7;outline-color:rgb(0, 144, 241);outline-offset:-1px;outline-style:solid;outline-width:1px;pointer-events:none;stroke:rgb(0, 144, 241);stroke-width:0px;"/><g id="bpmn-diagram_0_Lane_2" transform="translate(30, 0)" class="lane"><rect x="0" y="0" width="1251" height="451" class="sprotty-node" style="fill:none;font-weight:700;outline-color:rgb(0, 144, 241);outline-offset:-1px;outline-style:solid;outline-width:1px;stroke:rgb(0, 144, 241);stroke-width:0px;"/><g class="header" id="bpmn-diagram_0_Lane_2_header" style="fill:rgb(221, 221, 221);"><rect x="1" y="1" width="28" height="449"/><text transform="scale(1),translate(20,225.5),rotate(-90)" class="sprotty-label" style="fill:rgb(51, 51, 51);font-family:sans-serif;font-size:14px;perspective-origin:0px 0px;stroke:rgb(0, 0, 0);stroke-width:0px;text-anchor:middle;">Empfang</text></g></g><g id="bpmn-diagram_0_Task_1" transform="translate(141, 196)" class="node task"><defs><clipPath id="Task_1_clip_path"><path d="M2,5q0,-3 3,-3h100q3,0 3,3v40q0,3 -3,3h-100q-3,0 -3,-3z "/></clipPath></defs><path d="M0,5q0,-5 5,-5h100q5,0 5,5v40q0,5 -5,5h-100q-5,0 -5,-5z " class="sprotty-node" style="fill:rgb(66, 92, 129);font-weight:700;stroke:rgb(0, 0, 0);stroke-width:0px;"/><g transform="translate(0, 0)" class="comp sprotty-comp label-container" id="bpmn-diagram_0_fdd59bf8-92c9-417d-bd23-387378276505" style="fill:rgba(0, 0, 0, 0);stroke:rgba(0, 0, 0, 0);"><g class="bpmn-text-node" id="bpmn-diagram_0_Task_1_name"><text transform="translate(55,0)" class="sprotty-label" style="fill:rgb(240, 243, 248);font-family:sans-serif;font-size:12px;perspective-origin:0px 0px;stroke:rgb(0, 0, 0);stroke-width:0px;text-anchor:middle;"><tspan x="0" dy="15">Erfassung </tspan></text></g><g transform="translate(3, 38)" class="comp sprotty-comp extension" id="bpmn-diagram_0_4f95c169-cca6-40c7-9ff5-29acd29191de"><text class="label sprotty-label" id="bpmn-diagram_0_2247da9f-4fce-45a9-862b-7d7a62128f63" style="fill:rgb(0, 0, 0);font-family:sans-serif;font-size:10.6667px;stroke:rgb(0, 0, 0);stroke-width:0px;text-anchor:middle;"/></g></g></g><g id="bpmn-diagram_0_Task_4" transform="translate(988, 196)" class="node task"><defs><clipPath id="Task_4_clip_path"><path d="M2,5q0,-3 3,-3h100q3,0 3,3v40q0,3 -3,3h-100q-3,0 -3,-3z "/></clipPath></defs><path d="M0,5q0,-5 5,-5h100q5,0 5,5v40q0,5 -5,5h-100q-5,0 -5,-5z " class="sprotty-node" style="fill:rgb(66, 92, 129);font-weight:700;stroke:rgb(0, 0, 0);stroke-width:0px;"/><g transform="translate(0, 0)" class="comp sprotty-comp label-container" id="bpmn-diagram_0_167c8e12-cced-4cfb-a1f8-00c56f193805" style="fill:rgba(0, 0, 0, 0);stroke:rgba(0, 0, 0, 0);"><g class="bpmn-text-node" id="bpmn-diagram_0_Task_4_name"><text transform="translate(55,0)" class="sprotty-label" style="fill:rgb(240, 243, 248);font-family:sans-serif;font-size:12px;perspective-origin:0px 0px;stroke:rgb(0, 0, 0);stroke-width:0px;text-anchor:middle;"><tspan x="0" dy="15"/><tspan x="0" dy="15">Abgeschlossen </tspan></text></g><g transform="translate(3, 38)" class="comp sprotty-comp extension" id="bpmn-diagram_0_fa471ae5-3ab2-4948-b5b1-fd4b66f89810"><text class="label sprotty-label" id="bpmn-diagram_0_e2f62157-39a3-4505-ab14-909b5f9ddece" style="fill:rgb(0, 0, 0);font-family:sans-serif;font-size:10.6667px;stroke:rgb(0, 0, 0);stroke-width:0px;text-anchor:middle;"/></g></g></g><g id="bpmn-diagram_0_Task_3" transform="translate(988, 295)" class="node task"><defs><clipPath id="Task_3_clip_path"><path d="M2,5q0,-3 3,-3h100q3,0 3,3v40q0,3 -3,3h-100q-3,0 -3,-3z "/></clipPath></defs><path d="M0,5q0,-5 5,-5h100q5,0 5,5v40q0,5 -5,5h-100q-5,0 -5,-5z " class="sprotty-node" style="fill:rgb(66, 92, 129);font-weight:700;stroke:rgb(0, 0, 0);stroke-width:0px;"/><g transform="translate(0, 0)" class="comp sprotty-comp label-container" id="bpmn-diagram_0_792ff252-83b0-4991-b2ae-81d3d366a4cb" style="fill:rgba(0, 0, 0, 0);stroke:rgba(0, 0, 0, 0);"><g class="bpmn-text-node" id="bpmn-diagram_0_Task_3_name"><text transform="translate(55,0)" class="sprotty-label" style="fill:rgb(240, 243, 248);font-family:sans-serif;font-size:12px;perspective-origin:0px 0px;stroke:rgb(0, 0, 0);stroke-width:0px;text-anchor:middle;"><tspan x="0" dy="15"/><tspan x="0" dy="15">Abgebrochen </tspan></text></g><g transform="translate(3, 38)" class="comp sprotty-comp extension" id="bpmn-diagram_0_e91de1e0-ae79-4c56-9422-8e8c916ce52c"><text class="label sprotty-label" id="bpmn-diagram_0_c16d3d99-7709-46cd-9eeb-ca3eb954ff2f" style="fill:rgb(0, 0, 0);font-family:sans-serif;font-size:10.6667px;stroke:rgb(0, 0, 0);stroke-width:0px;text-anchor:middle;"/></g></g></g><g id="bpmn-diagram_0_StartEvent_1" transform="translate(70, 203)" class="startEvent event"><circle r="18" cx="18" cy="18" class="sprotty-node" style="fill:rgb(87, 161, 76);font-weight:700;stroke:rgb(0, 0, 0);stroke-width:0px;"/></g><g id="bpmn-diagram_0_StartEvent_1_bpmnlabel" transform="translate(75, 239)" class="BPMNLabel"><rect x="0" y="0" width="22.5625" height="16" class="sprotty-node" style="fill:rgba(0, 0, 0, 0);font-weight:700;stroke:rgb(0, 0, 0);stroke-width:0px;"/><g class="bpmn-text-node" id="bpmn-diagram_0_StartEvent_1_bpmnlabel_bpmntext"><text transform="translate(11.28125,0)" class="sprotty-label" style="font-family:sans-serif;font-size:10.6667px;perspective-origin:0.015625px 0px;stroke:rgb(0, 0, 0);stroke-width:0px;text-anchor:middle;"><tspan x="0" dy="15"/><tspan x="0" dy="15">Start </tspan></text></g></g><g id="bpmn-diagram_0_IntermediateCatchEvent_3" transform="translate(615, 203)" class="intermediateCatchEvent event"><circle r="18" cx="18" cy="18" class="sprotty-node" style="fill:rgb(111, 141, 171);font-weight:700;stroke:rgb(0, 0, 0);stroke-width:0px;"/><g class="icon" id="bpmn-diagram_0_IntermediateCatchEvent_3_icon"><path transform="scale(1.5),translate(4,4)" d="M11.8 9L10 3H9L7.158 9.64 5.99 4.69h-.97L3.85 9H1v.99h3.23l.49-.37.74-2.7L6.59 12h1.03l1.87-7.04 1.46 4.68.48.36H15V9h-3.2z" style="fill:rgb(240, 243, 248);stroke-width:0px;"/></g></g><g id="bpmn-diagram_0_IntermediateCatchEvent_3_bpmnlabel" transform="translate(619, 239)" class="BPMNLabel"><rect x="0" y="0" width="24" height="16" class="sprotty-node" style="fill:rgba(0, 0, 0, 0);font-weight:700;stroke:rgb(0, 0, 0);stroke-width:0px;"/><g class="bpmn-text-node" id="bpmn-diagram_0_IntermediateCatchEvent_3_bpmnlabel_bpmntext"><text transform="translate(12,0)" class="sprotty-label" style="font-family:sans-serif;font-size:10.6667px;perspective-origin:0.15625px 0px;stroke:rgb(0, 0, 0);stroke-width:0px;text-anchor:middle;"><tspan x="0" dy="15"/><tspan x="0" dy="15">OCR </tspan></text></g></g><g id="bpmn-diagram_0_IntermediateCatchEvent_4_bpmnlabel" transform="translate(685, 240)" class="BPMNLabel"><rect x="0" y="0" width="43.296875" height="27" class="sprotty-node" style="fill:rgba(0, 0, 0, 0);font-weight:700;stroke:rgb(0, 0, 0);stroke-width:0px;"/><g class="bpmn-text-node" id="bpmn-diagram_0_IntermediateCatchEvent_4_bpmnlabel_bpmntext"><text transform="translate(21.6484375,0)" class="sprotty-label" style="font-family:sans-serif;font-size:10.6667px;perspective-origin:0.03125px 0px;stroke:rgb(0, 0, 0);stroke-width:0px;text-anchor:middle;"><tspan x="0" dy="15"/><tspan x="0" dy="15">Imixs-ML</tspan><tspan x="0" dy="15">Invoice </tspan></text></g></g><g id="bpmn-diagram_0_IntermediateCatchEvent_5" transform="translate(784, 203)" class="intermediateCatchEvent event"><circle r="18" cx="18" cy="18" class="sprotty-node" style="fill:rgb(111, 141, 171);font-weight:700;stroke:rgb(0, 0, 0);stroke-width:0px;"/><g class="icon" id="bpmn-diagram_0_IntermediateCatchEvent_5_icon"><path transform="scale(1.5),translate(6,4)" d="M2.78 2L2 2.41v12l.78.42 9-6V8l-9-6zM3 13.48V3.35l7.6 5.07L3 13.48z" style="fill:rgb(240, 243, 248);stroke-width:0px;"/></g></g><g id="bpmn-diagram_0_IntermediateCatchEvent_5_bpmnlabel" transform="translate(748, 239)" class="BPMNLabel"><rect x="0" y="0" width="91.921875" height="27" class="sprotty-node" style="fill:rgba(0, 0, 0, 0);font-weight:700;stroke:rgb(0, 0, 0);stroke-width:0px;"/><g class="bpmn-text-node" id="bpmn-diagram_0_IntermediateCatchEvent_5_bpmnlabel_bpmntext"><text transform="translate(45.9609375,0)" class="sprotty-label" style="font-family:sans-serif;font-size:10.6667px;perspective-origin:0.03125px 0px;stroke:rgb(0, 0, 0);stroke-width:0px;text-anchor:middle;"><tspan x="0" dy="15">Start</tspan><tspan x="0" dy="15">Rechnungseingang </tspan></text></g></g><g id="bpmn-diagram_0_EndEvent_1" transform="translate(1138, 203)" class="endEvent event"><circle r="18" cx="18" cy="18" class="sprotty-node" style="fill:rgb(190, 89, 97);font-weight:700;stroke:rgb(146, 40, 40);stroke-width:3px;"/></g><g id="bpmn-diagram_0_EndEvent_1_bpmnlabel" transform="translate(1145, 239)" class="BPMNLabel"><rect x="0" y="0" width="19.046875" height="16" class="sprotty-node" style="fill:rgba(0, 0, 0, 0);font-weight:700;stroke:rgb(0, 0, 0);stroke-width:0px;"/><g class="bpmn-text-node" id="bpmn-diagram_0_EndEvent_1_bpmnlabel_bpmntext"><text transform="translate(9.5234375,0)" class="sprotty-label" style="font-family:sans-serif;font-size:10.6667px;perspective-origin:0.03125px 0px;stroke:rgb(0, 0, 0);stroke-width:0px;text-anchor:middle;"><tspan x="0" dy="15"/><tspan x="0" dy="15">End </tspan></text></g></g><g id="bpmn-diagram_0_BoundaryEvent_1" transform="translate(508, 179)" class="boundaryEvent event"><circle r="18" cx="18" cy="18" class="sprotty-node" style="fill:rgb(98, 126, 165);font-weight:700;opacity:0.8;stroke:rgba(53, 65, 82, 0.66);"/><g class="icon" id="bpmn-diagram_0_BoundaryEvent_1_icon"><path transform="scale(1.5),translate(4,4)" d="M13.507 12.324a7 7 0 0 0 .065-8.56A7 7 0 0 0 2 4.393V2H1v3.5l.5.5H5V5H2.811a6.008 6.008 0 1 1-.135 5.77l-.887.462a7 7 0 0 0 11.718 1.092zm-3.361-.97l.708-.707L8 7.792V4H7v4l.146.354 3 3z" style="fill:rgb(240, 243, 248);stroke-width:0px;"/></g></g><g id="bpmn-diagram_0_BoundaryEvent_1_bpmnlabel" transform="translate(-100, -100)" class="BPMNLabel"><rect x="0" y="0" width="0" height="0" class="sprotty-node" style="fill:rgba(0, 0, 0, 0);font-weight:700;stroke:rgb(0, 0, 0);stroke-width:0px;"/><g class="bpmn-text-node" id="bpmn-diagram_0_BoundaryEvent_1_bpmnlabel_bpmntext"><text transform="translate(0,0)" class="sprotty-label" style="font-family:sans-serif;font-size:10.6667px;stroke:rgb(0, 0, 0);stroke-width:0px;text-anchor:middle;"><tspan x="0" dy="15"/><tspan x="0" dy="15"> </tspan></text></g></g><g id="bpmn-diagram_0_IntermediateCatchEvent_1" transform="translate(460, 305)" class="intermediateCatchEvent event"><circle r="18" cx="18" cy="18" class="sprotty-node" style="fill:rgb(111, 141, 171);font-weight:700;stroke:rgb(0, 0, 0);stroke-width:0px;"/><g class="icon" id="bpmn-diagram_0_IntermediateCatchEvent_1_icon"><path transform="scale(1.5),translate(4,4)" d="M13.507 12.324a7 7 0 0 0 .065-8.56A7 7 0 0 0 2 4.393V2H1v3.5l.5.5H5V5H2.811a6.008 6.008 0 1 1-.135 5.77l-.887.462a7 7 0 0 0 11.718 1.092zm-3.361-.97l.708-.707L8 7.792V4H7v4l.146.354 3 3z" style="fill:rgb(240, 243, 248);stroke-width:0px;"/></g></g><g id="bpmn-diagram_0_IntermediateCatchEvent_1_bpmnlabel" transform="translate(442, 341)" class="BPMNLabel"><rect x="0" y="0" width="37.953125" height="27" class="sprotty-node" style="fill:rgba(0, 0, 0, 0);font-weight:700;stroke:rgb(0, 0, 0);stroke-width:0px;"/><g class="bpmn-text-node" id="bpmn-diagram_0_IntermediateCatchEvent_1_bpmnlabel_bpmntext"><text transform="translate(18.9765625,0)" class="sprotty-label" style="font-family:sans-serif;font-size:10.6667px;perspective-origin:0.015625px 0px;stroke:rgb(0, 0, 0);stroke-width:0px;text-anchor:middle;"><tspan x="0" dy="15"/><tspan x="0" dy="15">[timeout</tspan><tspan x="0" dy="15">90m] </tspan></text></g></g><g id="bpmn-diagram_0_IntermediateCatchEvent_6" transform="translate(672, 302)" class="intermediateCatchEvent event"><circle r="18" cx="18" cy="18" class="sprotty-node" style="fill:rgb(111, 141, 171);font-weight:700;stroke:rgb(0, 0, 0);stroke-width:0px;"/></g><g id="bpmn-diagram_0_IntermediateCatchEvent_6_bpmnlabel" transform="translate(660, 338)" class="BPMNLabel"><rect x="0" y="0" width="51.640625" height="16" class="sprotty-node" style="fill:rgba(0, 0, 0, 0);font-weight:700;stroke:rgb(0, 0, 0);stroke-width:0px;"/><g class="bpmn-text-node" id="bpmn-diagram_0_IntermediateCatchEvent_6_bpmnlabel_bpmntext"><text transform="translate(25.8203125,0)" class="sprotty-label" style="font-family:sans-serif;font-size:10.6667px;perspective-origin:0.03125px 0px;stroke:rgb(0, 0, 0);stroke-width:0px;text-anchor:middle;"><tspan x="0" dy="15"/><tspan x="0" dy="15">Abbrechen </tspan></text></g></g><g id="bpmn-diagram_0_IntermediateCatchEvent_7" transform="translate(672, 380)" class="intermediateCatchEvent event"><circle r="18" cx="18" cy="18" class="sprotty-node" style="fill:rgb(111, 141, 171);font-weight:700;stroke:rgb(0, 0, 0);stroke-width:0px;"/><g class="icon" id="bpmn-diagram_0_IntermediateCatchEvent_7_icon"><path transform="scale(1.5),translate(4,4)" d="M13.507 12.324a7 7 0 0 0 .065-8.56A7 7 0 0 0 2 4.393V2H1v3.5l.5.5H5V5H2.811a6.008 6.008 0 1 1-.135 5.77l-.887.462a7 7 0 0 0 11.718 1.092zm-3.361-.97l.708-.707L8 7.792V4H7v4l.146.354 3 3z" style="fill:rgb(240, 243, 248);stroke-width:0px;"/></g></g><g id="bpmn-diagram_0_IntermediateCatchEvent_7_bpmnlabel" transform="translate(657, 416)" class="BPMNLabel"><rect x="0" y="0" width="24.015625" height="57" class="sprotty-node" style="fill:rgba(0, 0, 0, 0);font-weight:700;stroke:rgb(0, 0, 0);stroke-width:0px;"/><g class="bpmn-text-node" id="bpmn-diagram_0_IntermediateCatchEvent_7_bpmnlabel_bpmntext"><text transform="translate(12.0078125,0)" class="sprotty-label" style="font-family:sans-serif;font-size:10.6667px;perspective-origin:0.140625px 0px;stroke:rgb(0, 0, 0);stroke-width:0px;text-anchor:middle;"><tspan x="0" dy="15"/><tspan x="0" dy="15">[Skip</tspan><tspan x="0" dy="15">OCR</tspan><tspan x="0" dy="15">after</tspan><tspan x="0" dy="15">3h] </tspan></text></g></g><g id="bpmn-diagram_0_ExclusiveGateway_1_bpmnlabel" transform="translate(-100, -100)" class="BPMNLabel"><rect x="0" y="0" width="0" height="0" class="sprotty-node" style="fill:rgba(0, 0, 0, 0);font-weight:700;stroke:rgb(0, 0, 0);stroke-width:0px;"/><g class="bpmn-text-node" id="bpmn-diagram_0_ExclusiveGateway_1_bpmnlabel_bpmntext"><text transform="translate(0,0)" class="sprotty-label" style="font-family:sans-serif;font-size:10.6667px;stroke:rgb(0, 0, 0);stroke-width:0px;text-anchor:middle;"><tspan x="0" dy="15"/><tspan x="0" dy="15"> </tspan></text></g></g><g id="bpmn-diagram_0_ExclusiveGateway_2" transform="translate(886, 196)" class="exclusiveGateway gateway"><polygon points="25,0 50,25 25,50 0,25" class="sprotty-node" style="fill:rgb(195, 157, 92);font-weight:700;stroke:rgb(0, 0, 0);stroke-width:0px;"/><g class="icon" id="bpmn-diagram_0_ExclusiveGateway_2_icon"><path transform="scale(1.5),translate(9,9)" d="M7.116 8l-4.558 4.558.884.884L8 8.884l4.558 4.558.884-.884L8.884 8l4.558-4.558-.884-.884L8 7.116 3.442 2.558l-.884.884L7.116 8z" style="fill:rgb(240, 243, 248);stroke-width:0px;"/></g></g><g id="bpmn-diagram_0_ExclusiveGateway_2_bpmnlabel" transform="translate(-100, -100)" class="BPMNLabel"><rect x="0" y="0" width="0" height="0" class="sprotty-node" style="fill:rgba(0, 0, 0, 0);font-weight:700;stroke:rgb(0, 0, 0);stroke-width:0px;"/><g class="bpmn-text-node" id="bpmn-diagram_0_ExclusiveGateway_2_bpmnlabel_bpmntext"><text transform="translate(0,0)" class="sprotty-label" style="font-family:sans-serif;font-size:10.6667px;stroke:rgb(0, 0, 0);stroke-width:0px;text-anchor:middle;"><tspan x="0" dy="15"/><tspan x="0" dy="15"> </tspan></text></g></g><g id="bpmn-diagram_0_TextAnnotation_2" transform="translate(731, 100)" class="textAnnotation"><rect x="0" y="0" width="181.671875" height="57" class="sprotty-node" style="fill:rgb(130, 132, 138);font-weight:700;opacity:0.2;stroke:rgb(0, 0, 0);stroke-width:0px;"/><polyline points="20,0 0,0 0,57 20,57" style="fill:none;stroke:rgb(87, 161, 76);stroke-width:2px;"/><g class="bpmn-text-node" id="bpmn-diagram_0_TextAnnotation_2_bpmntext"><text transform="translate(90.8359375,0)" class="sprotty-label" style="font-family:sans-serif;font-size:10.6667px;perspective-origin:0.03125px 0px;stroke:rgb(0, 0, 0);stroke-width:0px;text-anchor:middle;"><tspan x="0" dy="15">min_losses = 1.0</tspan><tspan x="0" dy="15">- 22.12.2021</tspan><tspan x="0" dy="15">geändert auf</tspan><tspan x="0" dy="15">0.001
retrain_rate=25
filename.pattern</tspan><tspan x="0" dy="15">= (PDF|pdf)$ </tspan></text></g></g><g id="bpmn-diagram_0_TextAnnotation_3" transform="translate(320, 20)" class="textAnnotation"><rect x="0" y="0" width="252.453125" height="57" class="sprotty-node" style="fill:rgb(130, 132, 138);font-weight:700;opacity:0.2;stroke:rgb(0, 0, 0);stroke-width:0px;"/><polyline points="20,0 0,0 0,57 20,57" style="fill:none;stroke:rgb(87, 161, 76);stroke-width:2px;"/><g class="bpmn-text-node" id="bpmn-diagram_0_TextAnnotation_3_bpmntext"><text transform="translate(126.2265625,0)" class="sprotty-label" style="font-family:sans-serif;font-size:10.6667px;perspective-origin:0.328125px 0px;stroke:rgb(0, 0, 0);stroke-width:0px;text-anchor:middle;"><tspan x="0" dy="15">scann pdf files only </tspan><tspan x="0" dy="15">(PDF|pdf)$

X-Tika-PDFocrStrategy=OCR_ONLY

Max</tspan><tspan x="0" dy="15">10 PDF Pages will be</tspan><tspan x="0" dy="15">scanned </tspan></text></g></g><g id="bpmn-diagram_0_SequenceFlow_3" class="sprotty-edge sequenceFlow bpmnedge" style="fill:none;stroke:rgb(0, 0, 0);stroke-width:1.5px;"><path d="M 251,221 L 276,221 L 276,221 L 301,221" class="sprotty-edge line"/><path d="M 1,0 L 14,-4 L 14,4 Z" transform="rotate(180&#10;                    301 221) translate(301 221&#10;                )" class="sprotty-edge arrow" style="fill:rgb(0, 0, 0);"/><text class="heading sprotty-label" id="bpmn-diagram_0_SequenceFlow_3_bpmnlabel" transform="translate(276, 221) translate(0, -3)" style="fill:rgb(51, 51, 51);font-family:sans-serif;font-size:12px;stroke-width:0px;text-align:center;text-anchor:middle;"/></g><g id="bpmn-diagram_0_SequenceFlow_9" class="sprotty-edge sequenceFlow bpmnedge" style="fill:none;stroke:rgb(0, 0, 0);stroke-width:1.5px;"><path d="M 582,221 L 598,221 L 598,221 L 615,221" class="sprotty-edge line"/><path d="M 1,0 L 14,-4 L 14,4 Z" transform="rotate(180&#10;                    615 221) translate(615 221&#10;                )" class="sprotty-edge arrow" style="fill:rgb(0, 0, 0);"/><text class="heading sprotty-label" id="bpmn-diagram_0_SequenceFlow_9_bpmnlabel" transform="translate(598.5, 221) translate(0, -3)" style="fill:rgb(51, 51, 51);font-family:sans-serif;font-size:12px;stroke-width:0px;text-align:center;text-anchor:middle;"/></g><g id="bpmn-diagram_0_SequenceFlow_10" class="sprotty-edge sequenceFlow bpmnedge" style="fill:none;stroke:rgb(0, 0, 0);stroke-width:1.5px;"><path d="M 820,221 L 853,221 L 853,221 L 886,221" class="sprotty-edge line"/><path d="M 1,0 L 14,-4 L 14,4 Z" transform="rotate(180&#10;                    886 221) translate(886 221&#10;                )" class="sprotty-edge arrow" style="fill:rgb(0, 0, 0);"/><text class="heading sprotty-label" id="bpmn-diagram_0_SequenceFlow_10_bpmnlabel" transform="translate(853, 221) translate(0, -3)" style="fill:rgb(51, 51, 51);font-family:sans-serif;font-size:12px;stroke-width:0px;text-align:center;text-anchor:middle;"/></g><g id="bpmn-diagram_0_SequenceFlow_11" class="sprotty-edge sequenceFlow bpmnedge" style="fill:none;stroke:rgb(0, 0, 0);stroke-width:1.5px;"><path d="M 936,221 L 962,221 L 962,221 L 988,221" class="sprotty-edge line"/><path d="M 1,0 L 14,-4 L 14,4 Z" transform="rotate(180&#10;                    988 221) translate(988 221&#10;                )" class="sprotty-edge arrow" style="fill:rgb(0, 0, 0);"/><text class="heading sprotty-label" id="bpmn-diagram_0_SequenceFlow_11_bpmnlabel" transform="translate(962, 221) translate(0, -3)" style="fill:rgb(51, 51, 51);font-family:sans-serif;font-size:12px;stroke-width:0px;text-align:center;text-anchor:middle;"/></g><g id="bpmn-diagram_0_SequenceFlow_12" class="sprotty-edge sequenceFlow bpmnedge" style="fill:none;stroke:rgb(0, 0, 0);stroke-width:1.5px;"><path d="M 1098,221 L 1118,221 L 1118,221 L 1138,221" class="sprotty-edge line"/><path d="M 1,0 L 14,-4 L 14,4 Z" transform="rotate(180&#10;                    1138 221) translate(1138 221&#10;                )" class="sprotty-edge arrow" style="fill:rgb(0, 0, 0);"/><text class="heading sprotty-label" id="bpmn-diagram_0_SequenceFlow_12_bpmnlabel" transform="translate(1118, 221) translate(0, -3)" style="fill:rgb(51, 51, 51);font-family:sans-serif;font-size:12px;stroke-width:0px;text-align:center;text-anchor:middle;"/></g><g id="bpmn-diagram_0_SequenceFlow_13" class="sprotty-edge sequenceFlow bpmnedge" style="fill:none;stroke:rgb(0, 0, 0);stroke-width:1.5px;"><path d="M 106,221 L 123,221 L 123,221 L 141,221" class="sprotty-edge line"/><path d="M 1,0 L 14,-4 L 14,4 Z" transform="rotate(180&#10;                    141 221) translate(141 221&#10;                )" class="sprotty-edge arrow" style="fill:rgb(0, 0, 0);"/><text class="heading sprotty-label" id="bpmn-diagram_0_SequenceFlow_13_bpmnlabel" transform="translate(123.5, 221) translate(0, -3)" style="fill:rgb(51, 51, 51);font-family:sans-serif;font-size:12px;stroke-width:0px;text-align:center;text-anchor:middle;"/></g><g id="bpmn-diagram_0_SequenceFlow_2" class="sprotty-edge sequenceFlow bpmnedge" style="fill:none;stroke:rgb(0, 0, 0);stroke-width:1.5px;"><path d="M 526,179 L 526,174  Q 526,169 531,169 L 623,169  Q 633,169 633,179 L 633,203" class="sprotty-edge line"/><path d="M 1,0 L 14,-4 L 14,4 Z" transform="rotate(-90&#10;                    633 203) translate(633 203&#10;                )" class="sprotty-edge arrow" style="fill:rgb(0, 0, 0);"/><text class="heading sprotty-label" id="bpmn-diagram_0_SequenceFlow_2_bpmnlabel" transform="translate(591.5, 169) translate(0, -3)" style="fill:rgb(51, 51, 51);font-family:sans-serif;font-size:12px;stroke-width:0px;text-align:center;text-anchor:middle;"/></g><g id="bpmn-diagram_0_SequenceFlow_5" class="sprotty-edge sequenceFlow bpmnedge" style="fill:none;stroke:rgb(0, 0, 0);stroke-width:1.5px;"><path d="M 496,323 L 501.5,323  Q 507,323 507,317.5 L 507,246" class="sprotty-edge line"/><path d="M 1,0 L 14,-4 L 14,4 Z" transform="rotate(90&#10;                    507 246) translate(507 246&#10;                )" class="sprotty-edge arrow" style="fill:rgb(0, 0, 0);"/><text class="heading sprotty-label" id="bpmn-diagram_0_SequenceFlow_5_bpmnlabel" transform="translate(507, 290) translate(-3, 0)" style="fill:rgb(51, 51, 51);font-family:sans-serif;font-size:12px;stroke-width:0px;text-align:center;text-anchor:middle;"/></g><g id="bpmn-diagram_0_SequenceFlow_8" class="sprotty-edge sequenceFlow bpmnedge" style="fill:none;stroke:rgb(0, 0, 0);stroke-width:1.5px;"><path d="M 544,246 L 544,310  Q 544,320 554,320 L 672,320" class="sprotty-edge line"/><path d="M 1,0 L 14,-4 L 14,4 Z" transform="rotate(180&#10;                    672 320) translate(672 320&#10;                )" class="sprotty-edge arrow" style="fill:rgb(0, 0, 0);"/><text class="heading sprotty-label" id="bpmn-diagram_0_SequenceFlow_8_bpmnlabel" transform="translate(571, 320) translate(0, -3)" style="fill:rgb(51, 51, 51);font-family:sans-serif;font-size:12px;stroke-width:0px;text-align:center;text-anchor:middle;"/></g><g id="bpmn-diagram_0_SequenceFlow_14" class="sprotty-edge sequenceFlow bpmnedge" style="fill:none;stroke:rgb(0, 0, 0);stroke-width:1.5px;"><path d="M 708,320 L 848,320 L 848,320 L 988,320" class="sprotty-edge line"/><path d="M 1,0 L 14,-4 L 14,4 Z" transform="rotate(180&#10;                    988 320) translate(988 320&#10;                )" class="sprotty-edge arrow" style="fill:rgb(0, 0, 0);"/><text class="heading sprotty-label" id="bpmn-diagram_0_SequenceFlow_14_bpmnlabel" transform="translate(848, 320) translate(0, -3)" style="fill:rgb(51, 51, 51);font-family:sans-serif;font-size:12px;stroke-width:0px;text-align:center;text-anchor:middle;"/></g><g id="bpmn-diagram_0_SequenceFlow_15" class="sprotty-edge sequenceFlow bpmnedge" style="fill:none;stroke:rgb(0, 0, 0);stroke-width:1.5px;"><path d="M 1098,320 L 1146,320  Q 1156,320 1156,310 L 1156,239" class="sprotty-edge line"/><path d="M 1,0 L 14,-4 L 14,4 Z" transform="rotate(90&#10;                    1156 239) translate(1156 239&#10;                )" class="sprotty-edge arrow" style="fill:rgb(0, 0, 0);"/><text class="heading sprotty-label" id="bpmn-diagram_0_SequenceFlow_15_bpmnlabel" transform="translate(1156, 308.5) translate(-3, 0)" style="fill:rgb(51, 51, 51);font-family:sans-serif;font-size:12px;stroke-width:0px;text-align:center;text-anchor:middle;"/></g><g id="bpmn-diagram_0_SequenceFlow_16" class="sprotty-edge sequenceFlow bpmnedge" style="fill:none;stroke:rgb(0, 0, 0);stroke-width:1.5px;"><path d="M 526,246 L 526,389  Q 526,399 536,399 L 672.0277992443886,399" class="sprotty-edge line"/><path d="M 1,0 L 14,-4 L 14,4 Z" transform="rotate(180&#10;                    672.0277992443886 399) translate(672.0277992443886 399&#10;                )" class="sprotty-edge arrow" style="fill:rgb(0, 0, 0);"/><text class="heading sprotty-label" id="bpmn-diagram_0_SequenceFlow_16_bpmnlabel" transform="translate(526, 395.5138996221943) translate(-3, 0)" style="fill:rgb(51, 51, 51);font-family:sans-serif;font-size:12px;stroke-width:0px;text-align:center;text-anchor:middle;"/></g><g id="bpmn-diagram_0_SequenceFlow_17" class="sprotty-edge sequenceFlow bpmnedge" style="fill:none;stroke:rgb(0, 0, 0);stroke-width:1.5px;"><path d="M 707.9722007556114,399 L 792,399  Q 802,399 802,389 L 802,323 M 802,317 L 802,239" class="sprotty-edge line"/><path d="M 1,0 L 14,-4 L 14,4 Z" transform="rotate(90&#10;                    802 239) translate(802 239&#10;                )" class="sprotty-edge arrow" style="fill:rgb(0, 0, 0);"/><text class="heading sprotty-label" id="bpmn-diagram_0_SequenceFlow_17_bpmnlabel" transform="translate(802, 366.0138996221943) translate(-3, 0)" style="fill:rgb(51, 51, 51);font-family:sans-serif;font-size:12px;stroke-width:0px;text-align:center;text-anchor:middle;"/></g><g class="header" id="bpmn-diagram_0_Participant_1_header" style="fill:rgb(221, 221, 221);"><rect x="1" y="1" width="28" height="449"/><text transform="scale(1),translate(20,225.5),rotate(-90)" class="sprotty-label" style="fill:rgb(51, 51, 51);font-family:sans-serif;font-size:14px;perspective-origin:0px 0px;stroke:rgb(0, 0, 0);stroke-width:0px;text-anchor:middle;">Posteingang</text></g><g transform="translate(0, 289)" class="container sprotty-comp" id="bpmn-diagram_0_Participant_1_container" style="fill:rgba(0, 0, 0, 0);stroke:rgba(0, 0, 0, 0);"/><g id="bpmn-diagram_0_Association_2" class="sprotty-edge association bpmnedge" style="fill:none;stroke:rgb(0, 0, 0);stroke-width:1.5px;"><path d="M 572.453125,70 L 623,70  Q 633,70 633,80 L 633,166 M 633,172 L 633,203" class="sprotty-edge line" style="stroke-dasharray:4px, 4px;"/><text class="heading sprotty-label" id="bpmn-diagram_0_Association_2_bpmnlabel" transform="translate(633, 106.2265625) translate(-3, 0)" style="fill:rgb(51, 51, 51);font-family:sans-serif;font-size:12px;stroke-width:0px;text-align:center;text-anchor:middle;"/></g><g id="bpmn-diagram_0_IntermediateCatchEvent_2_bpmnlabel" transform="translate(305, 155)" class="BPMNLabel"><rect x="0" y="0" width="91.921875" height="16" class="sprotty-node" style="fill:rgba(0, 0, 0, 0);font-weight:700;stroke:rgb(0, 0, 0);stroke-width:0px;"/><g class="bpmn-text-node" id="bpmn-diagram_0_IntermediateCatchEvent_2_bpmnlabel_bpmntext"><text transform="translate(45.9609375,0)" class="sprotty-label" style="font-family:sans-serif;font-size:10.6667px;perspective-origin:0.03125px 0px;stroke:rgb(0, 0, 0);stroke-width:0px;text-anchor:middle;"><tspan x="0" dy="15"/><tspan x="0" dy="15">Rechnungseingang </tspan></text></g></g><g id="bpmn-diagram_0_Task_2" transform="translate(470, 196)" class="node task"><defs><clipPath id="Task_2_clip_path"><path d="M2,5q0,-3 3,-3h102q3,0 3,3v40q0,3 -3,3h-102q-3,0 -3,-3z "/></clipPath></defs><path d="M0,5q0,-5 5,-5h102q5,0 5,5v40q0,5 -5,5h-102q-5,0 -5,-5z " class="sprotty-node" style="fill:rgb(66, 92, 129);font-weight:700;stroke:rgb(0, 0, 0);stroke-width:0px;"/><g transform="translate(0, 0)" class="comp sprotty-comp label-container" id="bpmn-diagram_0_60350d06-1f55-4359-b7a2-47d91f23da2f" style="fill:rgba(0, 0, 0, 0);stroke:rgba(0, 0, 0, 0);"><g class="bpmn-text-node" id="bpmn-diagram_0_Task_2_name"><text transform="translate(56,0)" class="sprotty-label" style="fill:rgb(240, 243, 248);font-family:sans-serif;font-size:12px;perspective-origin:0px 0px;stroke:rgb(0, 0, 0);stroke-width:0px;text-anchor:middle;"><tspan x="0" dy="15">Rechnung</tspan><tspan x="0" dy="15">Analyse </tspan></text></g><g transform="translate(3, 38)" class="comp sprotty-comp extension" id="bpmn-diagram_0_abebb603-d5a2-4f85-be5e-2f0c3317fa6b"><text class="label sprotty-label" id="bpmn-diagram_0_dc35ad66-6d0e-4c24-b8a3-32f642e37107" style="fill:rgb(0, 0, 0);font-family:sans-serif;font-size:10.6667px;stroke:rgb(0, 0, 0);stroke-width:0px;text-anchor:middle;"/></g></g></g><g id="bpmn-diagram_0_ExclusiveGateway_1" transform="translate(301, 196)" class="exclusiveGateway gateway"><polygon points="25,0 50,25 25,50 0,25" class="sprotty-node" style="fill:rgb(195, 157, 92);font-weight:700;stroke:rgb(0, 0, 0);stroke-width:0px;"/><g class="icon" id="bpmn-diagram_0_ExclusiveGateway_1_icon"><path transform="scale(1.5),translate(9,9)" d="M7.116 8l-4.558 4.558.884.884L8 8.884l4.558 4.558.884-.884L8.884 8l4.558-4.558-.884-.884L8 7.116 3.442 2.558l-.884.884L7.116 8z" style="fill:rgb(240, 243, 248);stroke-width:0px;"/></g></g><g id="bpmn-diagram_0_IntermediateCatchEvent_2" transform="translate(340, 130)" class="intermediateCatchEvent event"><circle r="18" cx="18" cy="18" class="sprotty-node" style="fill:rgb(111, 141, 171);font-weight:700;stroke:rgb(0, 0, 0);stroke-width:0px;"/></g><g id="bpmn-diagram_0_SequenceFlow_1" class="sprotty-edge sequenceFlow bpmnedge" style="fill:none;stroke:rgb(0, 0, 0);stroke-width:1.5px;"><path d="M 351,221 L 369,221  Q 375.5,221 375.5,214.5 L 375.5,211 M 375.5,208 L 375.5,214.5  Q 375.5,208 369,208 L 366.75,208  Q 358,208 358,199.25 L 358,166" class="sprotty-edge line"/><path d="M 1,0 L 14,-4 L 14,4 Z" transform="rotate(90&#10;                    358 166) translate(358 166&#10;                )" class="sprotty-edge arrow" style="fill:rgb(0, 0, 0);"/><text class="heading sprotty-label" id="bpmn-diagram_0_SequenceFlow_1_bpmnlabel" transform="translate(364.5, 208) translate(0, -3)" style="fill:rgb(51, 51, 51);font-family:sans-serif;font-size:12px;stroke-width:0px;text-align:center;text-anchor:middle;"/></g><g id="bpmn-diagram_0_SequenceFlow_4" class="sprotty-edge sequenceFlow bpmnedge" style="fill:none;stroke:rgb(0, 0, 0);stroke-width:1.5px;"><path d="M 358,166 L 358,198  Q 358,208 368,208 L 446.5,208  Q 453,208 453,214.5 L 453,214.5  Q 453,221 459.5,221 L 470,221" class="sprotty-edge line"/><path d="M 1,0 L 14,-4 L 14,4 Z" transform="rotate(180&#10;                    470 221) translate(470 221&#10;                )" class="sprotty-edge arrow" style="fill:rgb(0, 0, 0);"/><text class="heading sprotty-label" id="bpmn-diagram_0_SequenceFlow_4_bpmnlabel" transform="translate(399.5, 208) translate(0, -3)" style="fill:rgb(51, 51, 51);font-family:sans-serif;font-size:12px;stroke-width:0px;text-align:center;text-anchor:middle;"/></g><g id="bpmn-diagram_0_IntermediateCatchEvent_4" transform="translate(690, 203)" class="intermediateCatchEvent event"><circle r="18" cx="18" cy="18" class="sprotty-node" style="fill:rgb(111, 141, 171);font-weight:700;stroke:rgb(0, 0, 0);stroke-width:0px;"/><g class="icon" id="bpmn-diagram_0_IntermediateCatchEvent_4_icon"><path transform="scale(1.5),translate(4,4)" d="M11.8 9L10 3H9L7.158 9.64 5.99 4.69h-.97L3.85 9H1v.99h3.23l.49-.37.74-2.7L6.59 12h1.03l1.87-7.04 1.46 4.68.48.36H15V9h-3.2z" style="fill:rgb(240, 243, 248);stroke-width:0px;"/></g></g><g id="bpmn-diagram_0_SequenceFlow_6" class="sprotty-edge sequenceFlow bpmnedge" style="fill:none;stroke:rgb(0, 0, 0);stroke-width:1.5px;"><path d="M 651,221 L 660.75,221  Q 670.5,221 670.5,211.25 L 670.5,214.5  Q 670.5,208 677,208 L 695.5501004020113,208" class="sprotty-edge line"/><path d="M 1,0 L 14,-4 L 14,4 Z" transform="rotate(180&#10;                    695.5501004020113 208) translate(695.5501004020113 208&#10;                )" class="sprotty-edge arrow" style="fill:rgb(0, 0, 0);"/><text class="heading sprotty-label" id="bpmn-diagram_0_SequenceFlow_6_bpmnlabel" transform="translate(670.5, 211.72494979899437) translate(-3, 0)" style="fill:rgb(51, 51, 51);font-family:sans-serif;font-size:12px;stroke-width:0px;text-align:center;text-anchor:middle;"/></g><g id="bpmn-diagram_0_Association_1" class="sprotty-edge association bpmnedge" style="fill:none;stroke:rgb(0, 0, 0);stroke-width:1.5px;"><path d="M 731,128.5 L 704.75,128.5  Q 703,128.5 703,126.75 L 703,126.75  Q 703,125 704.75,125 L 748,125  Q 758,125 758,135 L 758,187  Q 758,197 748,197 L 711,197  Q 708,197 708,200 L 708,203" class="sprotty-edge line" style="stroke-dasharray:4px, 4px;"/><text class="heading sprotty-label" id="bpmn-diagram_0_Association_1_bpmnlabel" transform="translate(758, 145.75) translate(-3, 0)" style="fill:rgb(51, 51, 51);font-family:sans-serif;font-size:12px;stroke-width:0px;text-align:center;text-anchor:middle;"/></g><g id="bpmn-diagram_0_SequenceFlow_7" class="sprotty-edge sequenceFlow bpmnedge" style="fill:none;stroke:rgb(0, 0, 0);stroke-width:1.5px;"><path d="M 708,203 L 708,200  Q 708,197 711,197 L 742,197  Q 752,197 752,207 L 752,197 M 752,200 L 752,211  Q 752,221 762,221 L 784,221" class="sprotty-edge line"/><path d="M 1,0 L 14,-4 L 14,4 Z" transform="rotate(180&#10;                    784 221) translate(784 221&#10;                )" class="sprotty-edge arrow" style="fill:rgb(0, 0, 0);"/><text class="heading sprotty-label" id="bpmn-diagram_0_SequenceFlow_7_bpmnlabel" transform="translate(752, 200) translate(-3, 0)" style="fill:rgb(51, 51, 51);font-family:sans-serif;font-size:12px;stroke-width:0px;text-align:center;text-anchor:middle;"/></g></g></g></svg>